<svg xmlns="http://www.w3.org/2000/svg" version="1.0" preserveAspectRatio="xMidYMid meet" viewBox="1155.17 430.08 3808.33 3405.92">
<metadata>
Created by potrace 1.16, written by Peter Selinger 2001-2019
</metadata>
<g transform="translate(0.000000,4167.000000) scale(0.100000,-0.100000)" fill="#000000" stroke="none">
<path d="M24594 37252 l-742 -116 5 -40 c34 -314 186 -626 411 -845 l45 -43 41 43 c23 24 81 89 131 144 49 55 92 102 96 105 3 3 110 122 239 265 128 143 275 305 325 360 50 55 111 123 136 150 24 28 46 52 49 55 3 3 11 13 19 23 11 14 11 17 0 16 -8 -1 -348 -54 -755 -117z"/>
<path d="M40609 35621 c-61 -61 -21 -150 67 -151 68 0 107 60 80 123 -26 65 -97 78 -147 28z"/>
<path d="M41410 35637 c-55 -28 -62 -108 -13 -147 58 -46 143 -8 143 64 0 48 -8 65 -41 81 -34 18 -56 19 -89 2z"/>
<path d="M40190 33521 c-184 -115 -335 -213 -334 -218 0 -4 53 -37 117 -73 64 -36 117 -69 117 -73 0 -5 -39 -59 -87 -120 -327 -417 -755 -847 -1198 -1202 -323 -259 -664 -496 -1010 -702 -665 -396 -1445 -750 -2172 -986 -173 -56 -465 -141 -555 -161 -60 -14 -80 -81 -33 -112 35 -23 94 -15 276 35 695 193 1535 536 2206 902 801 436 1480 935 2048 1503 247 248 436 463 645 735 l25 32 125 -70 c68 -39 127 -67 131 -63 3 4 14 142 23 307 9 165 20 339 23 388 3 49 2 87 -3 87 -5 0 -160 -95 -344 -209z"/>
<path d="M28610 32980 l0 -200 815 0 815 0 0 200 0 200 -815 0 -815 0 0 -200z"/>
<path d="M30942 32983 l3 -198 1153 -3 1152 -2 0 200 0 200 -1155 0 -1155 0 2 -197z"/>
<path d="M41045 32324 c-62 -10 -152 -46 -205 -82 -66 -46 -139 -139 -172 -219 l-23 -58 0 -2545 0 -2545 37 -78 c67 -140 193 -240 337 -267 69 -13 372 -13 442 0 141 26 265 123 332 258 l42 85 0 2546 0 2546 -23 58 c-51 126 -156 227 -287 277 -54 21 -80 23 -255 26 -107 1 -208 0 -225 -2z"/>
<path d="M28610 31590 l0 -200 2555 0 2555 0 0 200 0 200 -2555 0 -2555 0 0 -200z"/>
<path d="M39025 31049 c-165 -57 -286 -198 -315 -369 -8 -46 -10 -598 -8 -1925 l3 -1860 22 -57 c50 -132 155 -239 281 -289 52 -21 77 -23 275 -27 198 -3 224 -2 285 17 164 49 284 174 327 336 13 52 15 280 15 1917 0 1338 -3 1872 -11 1910 -34 159 -163 300 -320 349 -52 16 -92 19 -277 19 -192 -1 -224 -3 -277 -21z"/>
<path d="M28610 30105 l0 -195 1705 0 1705 0 0 195 0 195 -1705 0 -1705 0 0 -195z"/>
<path d="M32480 30105 l0 -195 845 0 845 0 0 195 0 195 -845 0 -845 0 0 -195z"/>
<path d="M22016 30094 c-106 -25 -184 -71 -272 -159 -132 -131 -188 -284 -166 -451 14 -103 62 -218 119 -283 50 -57 153 -121 243 -151 78 -26 216 -31 300 -11 183 44 348 186 415 356 24 61 28 85 29 180 1 91 -3 122 -22 178 -91 262 -368 408 -646 341z"/>
<path d="M37058 29981 c-157 -50 -284 -193 -318 -355 -7 -35 -10 -482 -8 -1396 l3 -1345 23 -56 c50 -124 159 -233 280 -280 50 -20 80 -23 256 -27 131 -3 219 0 259 8 141 28 271 128 335 260 l37 75 0 1395 0 1395 -33 69 c-60 128 -157 214 -289 257 -82 28 -460 27 -545 0z"/>
<path d="M28610 28715 l0 -195 815 0 815 0 0 195 0 195 -815 0 -815 0 0 -195z"/>
<path d="M30940 28715 l0 -195 1505 0 1505 0 0 195 0 195 -1505 0 -1505 0 0 -195z"/>
<path d="M25638 28888 c-37 -3 -85 -12 -105 -19 -210 -68 -381 -271 -399 -475 -27 -316 212 -578 527 -577 306 1 561 247 563 543 2 174 -27 254 -131 362 -130 134 -269 185 -455 166z"/>
<path d="M35325 28548 c-137 -26 -264 -126 -331 -262 l-39 -80 -3 -640 c-3 -574 -1 -648 14 -704 41 -155 187 -295 345 -331 57 -14 421 -14 478 0 158 36 304 176 345 331 15 56 17 130 14 703 l-3 640 -38 79 c-66 139 -194 238 -341 265 -72 13 -371 13 -441 -1z"/>
<path d="M28610 27330 l0 -200 2285 0 2285 0 0 200 0 200 -2285 0 -2285 0 0 -200z"/>
<path d="M14582 27096 c-41 -8 -112 -33 -160 -56 -69 -33 -101 -57 -167 -123 -150 -151 -205 -331 -161 -533 35 -162 158 -296 332 -361 92 -34 249 -43 344 -19 222 56 417 246 466 454 31 129 -1 297 -77 411 -120 180 -349 270 -577 227z"/>
<path d="M23471 27033 c-13 -26 -37 -65 -53 -86 -17 -21 -29 -39 -27 -41 27 -21 2414 -1284 2420 -1280 5 3 9 11 9 19 0 8 17 47 38 88 l39 74 -1192 637 c-656 350 -1196 636 -1202 636 -5 0 -19 -21 -32 -47z"/>
<path d="M20705 26040 c-935 -555 -1807 -1072 -1938 -1150 l-238 -141 26 -35 c14 -19 38 -59 51 -89 14 -30 29 -54 32 -51 6 3 3405 2018 3785 2243 l108 64 -31 35 c-16 19 -41 57 -55 84 -14 28 -29 50 -33 49 -4 0 -772 -455 -1707 -1009z"/>
<path d="M17765 26594 c-203 -32 -378 -160 -469 -345 -72 -147 -79 -261 -25 -417 53 -153 186 -275 358 -326 71 -21 224 -21 304 0 198 51 360 203 428 402 54 158 19 364 -83 494 -50 62 -170 142 -257 169 -65 20 -197 32 -256 23z"/>
<path d="M27375 25984 c-280 -113 -511 -207 -514 -209 -2 -3 6 -26 17 -53 12 -27 24 -68 28 -91 4 -23 10 -44 15 -47 5 -2 234 86 509 197 376 152 500 205 496 216 -3 8 -11 54 -18 104 -6 49 -14 89 -17 89 -3 -1 -235 -93 -516 -206z"/>
<path d="M15575 25260 c-4 -21 -20 -66 -36 -100 -16 -35 -28 -64 -27 -65 2 -1 442 -149 978 -330 536 -180 980 -330 986 -332 6 -2 18 24 28 58 9 34 25 79 35 100 l19 38 -32 11 c-35 13 -1354 459 -1713 580 l-232 78 -6 -38z"/>
<path d="M12980 24576 l-1425 -671 -3 -118 c-1 -65 1 -117 5 -115 4 3 668 312 1474 687 l1465 682 -33 66 c-18 36 -36 83 -39 104 -4 22 -9 39 -13 38 -3 -1 -647 -303 -1431 -673z"/>
<path d="M28968 23423 l-3 -1568 -34 49 c-233 335 -679 596 -1271 741 -74 18 -177 39 -227 46 l-93 13 0 328 0 328 -905 0 -905 0 0 -644 0 -644 -92 -53 c-158 -93 -342 -285 -469 -489 -346 -558 -412 -1261 -160 -1714 l38 -69 95 2 c175 4 305 -45 402 -150 89 -95 137 -226 153 -414 l8 -90 40 -7 c22 -4 79 -7 126 -7 l86 -1 47 193 c25 105 67 278 92 383 l46 191 70 16 c326 79 617 373 729 737 13 41 24 77 25 79 2 1 31 -27 65 -63 306 -328 660 -561 1154 -761 233 -94 572 -195 805 -240 47 -9 93 -19 104 -22 18 -5 18 -17 12 -312 -7 -266 -6 -303 7 -286 60 85 248 445 312 598 l28 67 759 0 758 0 0 2665 0 2665 -900 0 -900 0 -2 -1567z"/>
<path d="M22090 22165 l0 -2505 905 0 905 0 0 2505 0 2505 -905 0 -905 0 0 -2505z"/>
<path d="M44769 23453 c-12 -32 -23 -59 -25 -61 -1 -2 -32 6 -70 17 -37 12 -69 19 -71 17 -3 -2 -37 -84 -77 -183 l-73 -178 -120 -7 c-122 -7 -252 -27 -336 -52 l-45 -13 -132 203 c-72 112 -134 204 -137 204 -3 0 -45 -21 -94 -46 -49 -25 -96 -44 -104 -40 -8 3 -162 -73 -347 -171 -183 -97 -335 -178 -337 -179 -2 -2 39 -103 91 -225 l95 -223 -106 -105 c-58 -58 -133 -142 -166 -187 -33 -44 -69 -92 -80 -106 l-20 -26 -170 38 c-93 20 -173 36 -176 34 -3 -2 -12 -24 -19 -50 -7 -25 -18 -48 -25 -50 -6 -3 -40 2 -75 10 -36 9 -67 12 -71 8 -3 -4 -16 -43 -29 -87 -13 -44 -30 -85 -38 -92 -17 -14 -184 -555 -174 -564 19 -16 317 -128 320 -120 2 5 36 -4 77 -21 l73 -30 -5 -91 c-8 -139 20 -395 62 -558 6 -24 -4 -33 -199 -159 l-206 -133 23 -41 c14 -23 95 -175 182 -338 86 -164 158 -298 160 -298 2 0 40 16 86 35 82 35 90 35 101 2 2 -4 68 20 147 53 l144 61 38 -37 c21 -21 36 -41 32 -46 -13 -22 201 -204 326 -278 39 -23 71 -48 71 -56 0 -7 -20 -108 -45 -224 -25 -116 -45 -215 -45 -220 0 -5 19 -14 43 -21 23 -6 188 -56 366 -110 178 -54 329 -99 335 -99 6 0 18 18 28 40 l16 39 79 -24 c43 -14 83 -25 89 -25 7 0 49 92 94 204 l82 205 56 5 c55 6 408 47 425 50 5 0 66 -87 136 -196 l128 -196 77 41 78 42 21 -26 22 -26 345 183 c189 102 348 188 353 193 4 4 -35 107 -86 229 l-95 222 100 97 c85 83 150 162 263 317 l20 27 139 -30 c77 -17 145 -31 152 -31 7 0 15 13 19 30 4 16 10 32 14 34 4 3 47 -4 96 -15 49 -10 91 -16 94 -13 3 3 58 175 122 382 l116 377 -36 17 c-20 10 -123 52 -229 95 l-193 77 7 95 c7 114 -9 299 -37 431 -12 52 -22 104 -23 114 -1 15 44 49 189 144 105 68 196 127 203 131 9 5 -29 85 -144 302 -86 162 -171 322 -190 356 l-34 62 -102 -45 c-55 -24 -107 -44 -113 -44 -7 0 -60 -20 -118 -45 -58 -25 -110 -45 -115 -45 -6 0 -43 34 -83 76 -96 100 -190 175 -319 259 -58 38 -106 69 -107 70 -1 0 21 108 49 238 27 131 48 240 46 242 -4 4 -754 235 -762 235 -2 0 -14 -26 -27 -57z m446 -108 c160 -49 293 -91 298 -95 4 -3 -15 -112 -43 -241 -28 -128 -47 -235 -42 -237 24 -8 226 -146 292 -199 80 -65 200 -185 200 -201 0 -7 -138 -72 -154 -72 -2 0 -39 36 -82 81 -44 45 -113 110 -155 145 -71 59 -255 188 -281 196 -8 3 2 69 36 229 26 123 49 231 52 240 3 12 -51 32 -272 99 -151 46 -277 87 -279 91 -3 3 3 24 11 46 l16 41 57 -18 c31 -9 187 -56 346 -105z m-1411 -191 c70 -108 126 -197 124 -198 -2 -1 -44 -11 -94 -22 l-91 -20 -112 171 c-61 95 -111 176 -111 181 0 10 128 83 146 84 7 0 69 -88 138 -196z m2776 -961 c96 -180 170 -328 164 -330 -5 -2 -94 -59 -199 -127 -161 -106 -190 -128 -188 -148 0 -13 13 -77 28 -143 24 -106 28 -145 31 -329 l3 -210 215 -86 c118 -47 217 -88 221 -91 4 -5 -200 -694 -209 -706 -2 -2 -150 28 -154 32 -2 1 40 143 93 315 53 172 95 313 93 315 -2 1 -103 42 -225 90 l-223 89 0 153 c0 101 4 153 11 153 12 0 7 43 -27 220 -13 69 -24 130 -24 137 0 6 27 28 60 49 33 20 60 43 60 49 0 7 55 48 122 92 67 43 126 81 131 84 8 5 -159 331 -299 585 l-34 61 82 36 c46 19 86 36 89 36 3 1 84 -146 179 -326z m-2010 186 c422 -98 768 -374 955 -760 28 -57 48 -114 50 -140 2 -24 10 -71 19 -104 85 -321 52 -671 -89 -961 -88 -182 -241 -366 -406 -490 -36 -27 -64 -54 -62 -60 4 -13 -135 -93 -203 -116 -90 -30 -224 -49 -360 -49 -902 -3 -1564 848 -1338 1720 115 443 459 815 886 957 140 46 359 48 548 3z m-824 -91 c-356 -212 -603 -575 -671 -986 -22 -128 -16 -404 10 -522 60 -272 189 -506 389 -705 145 -144 307 -251 496 -325 131 -51 338 -88 510 -91 l95 -1 -65 -15 c-98 -22 -381 -22 -493 0 -291 58 -526 184 -732 391 -204 204 -326 428 -386 706 -30 140 -33 401 -6 530 103 482 408 858 839 1036 46 18 87 34 92 34 5 0 -30 -24 -78 -52z m-1169 -223 l22 -5 -20 -35 c-12 -19 -26 -35 -32 -35 -20 1 -267 57 -272 62 -2 2 0 20 5 39 l10 36 133 -29 c72 -15 142 -30 154 -33z m3529 -2047 c12 -13 -135 -197 -249 -312 l-128 -129 91 -211 c49 -116 90 -216 90 -222 0 -10 -606 -338 -639 -346 -7 -2 -15 2 -17 7 -2 6 106 69 240 140 l243 129 -34 81 c-19 44 -62 144 -95 222 l-61 143 94 92 c127 125 213 234 322 409 16 27 16 27 77 14 34 -7 63 -15 66 -17z m-1839 -973 c2 -1 -136 -354 -142 -363 -1 -1 -34 8 -73 20 l-70 23 62 156 c35 86 66 162 70 168 6 9 29 10 79 5 40 -4 73 -7 74 -9z"/>
<path d="M15220 21270 l0 -1610 905 0 905 0 0 1610 0 1610 -905 0 -905 0 0 -1610z"/>
<path d="M18660 20755 l0 -1095 905 0 905 0 0 1095 0 1095 -905 0 -905 0 0 -1095z"/>
<path d="M12140 20085 l0 -425 905 0 905 0 0 425 0 425 -905 0 -905 0 0 -425z"/>
<path d="M27085 19555 c-76 -16 -170 -48 -260 -87 -101 -44 -99 -42 -67 -99 15 -27 30 -49 34 -49 4 0 33 12 65 26 260 117 457 134 584 48 l50 -33 50 31 50 31 -33 34 c-44 46 -105 81 -170 99 -66 17 -223 17 -303 -1z"/>
<path d="M24875 19522 c-35 -9 -37 -32 -11 -94 15 -36 16 -36 53 -26 75 21 176 -12 227 -73 15 -17 26 -39 24 -47 -3 -16 -38 -45 -132 -110 -93 -64 -107 -153 -47 -291 17 -38 31 -77 31 -85 0 -41 -79 -36 -151 10 -21 13 -42 24 -46 23 -5 0 -25 -20 -46 -44 l-38 -43 46 -32 c57 -39 142 -70 193 -70 47 0 119 36 146 73 31 42 26 105 -18 215 -28 71 -34 97 -26 111 5 11 45 44 89 74 43 31 89 72 101 93 62 99 -8 229 -157 296 -51 23 -180 33 -238 20z"/>
<path d="M28380 19504 c-87 -23 -190 -78 -254 -136 -66 -60 -70 -73 -82 -248 -16 -255 48 -523 171 -710 30 -46 55 -91 55 -101 0 -39 -124 -112 -289 -170 -70 -24 -91 -35 -86 -47 3 -8 10 -34 16 -58 6 -24 13 -44 15 -44 1 0 45 14 96 31 259 86 400 211 372 326 -4 15 -31 63 -60 106 -62 93 -106 193 -136 314 -20 76 -23 115 -23 286 l0 198 35 30 c48 41 139 86 207 104 72 19 141 19 222 0 35 -9 65 -14 66 -13 6 10 35 96 35 105 0 18 -131 43 -222 42 -46 0 -108 -7 -138 -15z"/>
<path d="M28447 19190 c-20 -11 -49 -39 -65 -62 -37 -57 -38 -148 -3 -200 34 -50 80 -78 139 -85 184 -21 275 220 126 334 -49 37 -141 43 -197 13z"/>
<path d="M27095 19176 c-139 -60 -139 -274 -1 -337 140 -64 292 61 256 211 -26 109 -151 171 -255 126z"/>
<path d="M25416 17604 c10 -112 52 -306 89 -419 162 -482 471 -868 832 -1037 136 -64 254 -90 408 -91 72 0 159 5 195 12 96 19 234 66 323 109 42 21 77 35 77 32 0 -3 -16 -79 -36 -170 -24 -109 -44 -178 -60 -202 -48 -75 -145 -177 -224 -237 -429 -323 -1027 -251 -1753 211 -181 115 -341 234 -630 469 -15 13 -19 24 -14 48 5 21 3 31 -6 31 -60 0 -590 -103 -802 -156 -599 -150 -1286 -404 -1582 -585 -53 -33 -82 -43 -138 -50 -456 -56 -890 -241 -1308 -558 -152 -115 -321 -258 -292 -247 23 9 345 116 349 116 2 0 8 -19 32 -101 4 -14 -21 -25 -128 -59 -156 -49 -341 -122 -486 -191 -86 -40 -122 -64 -201 -136 -632 -576 -1374 -1326 -1997 -2019 -836 -930 -1548 -1836 -2129 -2709 -229 -343 -266 -409 -478 -837 -104 -211 -166 -325 -174 -322 -7 2 -20 7 -28 10 -26 11 -17 -40 15 -85 50 -68 180 -156 379 -256 81 -41 95 -45 103 -31 40 72 287 374 372 455 l35 34 133 -6 c323 -16 789 -85 1273 -189 766 -163 1830 -479 2728 -808 l87 -32 0 -111 0 -112 228 -141 c125 -78 294 -178 376 -224 923 -514 2164 -876 3546 -1035 374 -43 414 -43 554 -6 435 117 1014 430 1615 875 430 319 728 464 1104 538 88 17 148 22 282 22 185 0 245 -8 405 -56 102 -31 110 -35 305 -177 240 -175 577 -434 810 -622 360 -290 757 -639 784 -687 41 -77 -56 -211 -165 -228 -101 -15 -339 103 -632 313 -210 150 -504 394 -740 613 -69 63 -145 133 -170 154 l-45 40 53 -75 c30 -41 115 -167 190 -280 275 -416 427 -697 437 -809 l6 -61 -46 -44 c-148 -141 -759 -585 -846 -614 -45 -15 -85 -14 -124 3 -18 7 -104 79 -192 160 -246 227 -483 395 -556 396 -38 0 -112 -58 -364 -285 -224 -202 -333 -293 -372 -314 -12 -6 -57 -38 -100 -70 -152 -114 -421 -262 -629 -345 l-91 -36 -337 0 -336 0 0 -79 0 -78 -87 -11 c-49 -6 -149 -17 -223 -23 -74 -7 -137 -13 -138 -15 -6 -4 91 -144 177 -254 45 -58 127 -153 182 -213 119 -127 122 -141 33 -145 l-62 -3 -86 93 c-115 126 -223 262 -304 385 -37 55 -71 108 -77 116 -9 12 -31 13 -155 4 -212 -15 -1561 -15 -1865 1 -1008 51 -1848 136 -2605 262 -63 10 -254 35 -425 55 -633 73 -1157 143 -1499 201 -82 14 -150 24 -151 22 -7 -7 -182 -1048 -187 -1111 l-2 -27 -898 0 -898 0 0 -125 0 -125 16585 0 16585 0 0 125 0 125 -1452 0 -1452 0 -25 31 c-26 30 -29 31 -251 65 -1011 154 -1535 257 -1875 370 -129 42 -188 71 -272 130 -119 85 -205 206 -253 359 -28 88 -39 312 -20 437 13 96 98 574 106 600 5 17 127 18 2262 20 l2257 3 65 31 c36 17 82 45 104 63 21 17 44 31 51 31 7 0 50 19 95 41 180 90 303 268 331 478 6 42 73 972 149 2066 76 1095 238 3429 361 5188 l224 3197 -17 82 c-10 45 -32 112 -49 148 -39 79 -142 186 -216 224 -120 60 132 56 -3405 56 l-3238 0 0 -25 0 -25 -3875 0 -3875 0 0 25 0 25 -1227 -2 -1228 -3 -60 -23 c-33 -13 -90 -30 -127 -37 -182 -37 -364 -157 -462 -303 -86 -130 -63 112 -277 -2959 -107 -1525 -197 -2769 -200 -2765 -4 4 -37 117 -74 252 -269 982 -583 1865 -846 2380 -202 397 -518 843 -814 1149 -156 162 -438 424 -565 526 -456 364 -993 640 -1575 806 -83 24 -151 44 -153 45 -1 1 7 41 18 89 11 48 19 89 18 90 -2 1 -48 9 -103 19 -207 35 -495 152 -757 307 -358 211 -658 447 -953 751 l-166 171 7 -69z m3064 -2641 c27 -16 50 -32 50 -37 0 -19 -114 -177 -192 -266 -275 -313 -619 -493 -985 -517 l-93 -6 0 60 0 61 78 7 c315 28 569 147 810 379 96 93 239 268 265 323 5 13 12 23 14 23 1 0 25 -12 53 -27z m-9592 -2451 c-322 -333 -564 -763 -673 -1193 -56 -220 -69 -335 -69 -614 -1 -274 6 -357 50 -567 31 -150 74 -296 120 -415 20 -52 34 -96 33 -97 -10 -9 -90 -46 -98 -46 -21 0 -105 238 -151 423 -54 222 -71 360 -77 620 -6 269 3 384 48 610 99 501 334 939 732 1370 l100 108 46 -45 45 -45 -106 -109z m12207 -5550 c-30 -435 -55 -817 -55 -849 1 -213 123 -428 287 -506 l68 -32 2925 -5 c1609 -3 3391 -5 3960 -5 l1035 0 107 620 c191 1114 173 1020 219 1114 102 207 301 322 554 320 l90 -1 -67 -13 c-177 -35 -326 -160 -389 -324 -15 -40 -199 -1065 -428 -2386 -49 -284 -57 -381 -41 -505 26 -197 92 -334 224 -465 119 -117 276 -197 456 -234 30 -6 334 -36 675 -66 341 -30 627 -57 635 -59 8 -2 -968 -3 -2170 -3 -1202 0 -2070 4 -1930 8 140 4 323 14 405 23 647 71 1089 290 1333 660 40 60 72 113 72 118 0 4 -1915 8 -4255 8 l-4255 0 -6 27 c-17 65 12 1237 57 2333 l12 285 107 145 c121 163 325 454 385 547 22 35 41 57 43 50 2 -8 -22 -370 -53 -805z"/>
<path d="M27085 17617 c-28 -63 -26 -66 85 -101 241 -76 541 -91 830 -41 111 19 122 23 116 44 -28 97 -30 101 -45 96 -86 -26 -224 -39 -416 -39 -228 0 -339 16 -481 69 l-65 25 -24 -53z"/>
<path d="M14626 15351 c-206 -68 -325 -283 -272 -491 32 -123 107 -214 224 -272 62 -31 73 -33 172 -33 97 0 110 2 171 31 164 78 247 218 237 400 -8 155 -93 279 -236 347 -85 40 -207 47 -296 18z"/>
</g>
</svg>