<?xml version="1.0" standalone="no"?>
<!DOCTYPE svg PUBLIC "-//W3C//DTD SVG 20010904//EN"
 "http://www.w3.org/TR/2001/REC-SVG-20010904/DTD/svg10.dtd">
<svg version="1.0" xmlns="http://www.w3.org/2000/svg"
 width="500.000000pt" height="500.000000pt" viewBox="0 0 500.000000 500.000000"
 preserveAspectRatio="xMidYMid meet">

<g transform="translate(0.000000,500.000000) scale(0.100000,-0.100000)"
fill="#000000" stroke="none">
<path d="M1857 4485 c-140 -52 -207 -214 -143 -350 25 -55 81 -110 133 -131
l33 -14 0 -220 0 -220 -27 0 c-91 -1 -213 -60 -286 -140 -60 -65 -95 -137
-110 -226 l-11 -64 -218 0 -218 0 -14 33 c-72 173 -321 212 -436 67 -163 -206
29 -483 284 -408 48 14 142 102 152 142 l6 26 224 0 224 0 0 -205 0 -205 -178
0 -179 0 -18 40 c-26 58 -93 116 -156 134 -65 20 -92 20 -155 1 -151 -45 -224
-225 -149 -364 36 -66 85 -107 149 -126 63 -19 90 -19 155 1 63 18 130 76 156
134 l18 40 179 0 178 0 0 -205 0 -205 -85 0 -85 0 -19 38 c-25 49 -87 107
-133 127 -48 19 -148 19 -196 0 -47 -20 -108 -78 -135 -130 -29 -56 -29 -164
1 -221 79 -154 280 -192 402 -78 26 24 55 62 65 84 l18 40 81 0 82 0 11 -66
c32 -185 173 -325 357 -356 l66 -11 0 -218 0 -219 -33 -14 c-93 -38 -157 -137
-157 -242 0 -176 172 -296 341 -239 131 45 199 187 157 327 -15 52 -78 121
-133 148 l-45 22 0 219 0 219 210 0 210 0 0 -178 0 -179 -40 -18 c-58 -26
-116 -93 -134 -156 -20 -65 -20 -92 -1 -155 45 -151 225 -224 364 -149 65 36
103 81 125 147 20 63 20 90 0 157 -18 63 -76 130 -134 156 l-40 18 0 179 0
178 205 0 205 0 0 -85 0 -85 -38 -19 c-90 -46 -141 -128 -142 -229 0 -76 19
-124 68 -175 58 -60 105 -81 187 -81 85 0 135 23 192 88 60 68 78 156 52 250
-13 48 -86 127 -139 151 l-40 18 0 82 0 82 66 11 c91 15 168 55 235 121 66 66
106 145 122 235 l11 66 218 0 218 0 14 -33 c21 -52 76 -108 131 -133 205 -96
423 102 350 317 -45 131 -187 199 -329 157 -48 -14 -142 -102 -152 -142 l-6
-26 -224 0 -224 0 0 205 0 205 84 0 84 0 22 -45 c39 -80 141 -145 230 -145
133 0 260 127 260 260 0 133 -127 260 -260 260 -89 0 -191 -65 -230 -145 l-22
-45 -84 0 -84 0 0 205 0 205 224 0 224 0 6 -26 c10 -40 104 -128 152 -142 255
-75 447 202 284 408 -115 145 -364 106 -436 -67 l-14 -33 -218 0 -218 0 -11
66 c-21 121 -102 243 -200 300 -52 31 -153 64 -194 64 l-29 0 0 220 0 220 33
14 c173 72 212 321 67 436 -206 163 -483 -29 -408 -284 14 -48 102 -142 142
-152 l26 -6 0 -224 0 -224 -205 0 -205 0 0 84 0 84 45 22 c80 39 145 141 145
230 0 133 -127 260 -260 260 -133 0 -260 -127 -260 -260 0 -89 65 -191 145
-230 l45 -22 0 -84 0 -84 -205 0 -205 0 0 224 0 224 26 6 c40 10 128 104 142
152 42 142 -26 284 -157 329 -54 18 -123 18 -174 0z m175 -164 c47 -53 33
-149 -27 -181 -56 -30 -134 -10 -161 42 -17 32 -18 91 -3 119 35 65 141 76
191 20z m1078 24 c40 -21 60 -53 60 -98 0 -74 -45 -121 -115 -121 -70 0 -115
47 -115 122 0 87 90 138 170 97z m-549 -278 c18 -12 40 -34 47 -47 20 -39 8
-98 -27 -134 -27 -26 -39 -31 -81 -31 -43 0 -54 5 -82 33 -28 28 -33 39 -33
81 0 39 5 55 25 76 46 50 98 58 151 22z m684 -684 c55 -29 114 -90 139 -143
21 -44 21 -56 24 -726 2 -663 2 -683 -18 -736 -24 -65 -81 -127 -147 -159
l-48 -24 -695 0 -695 0 -47 23 c-67 33 -123 94 -148 158 -19 53 -20 74 -20
724 0 644 1 671 20 723 30 80 106 152 190 178 14 4 336 7 715 6 686 -2 690 -2
730 -24z m-2427 -227 c34 -18 56 -57 56 -101 0 -102 -120 -154 -196 -86 -30
27 -33 35 -33 86 0 51 3 59 33 86 37 33 94 39 140 15z m3502 -15 c77 -76 32
-201 -71 -201 -78 0 -125 46 -123 120 2 68 47 109 122 110 35 0 49 -6 72 -29z
m-3426 -536 c87 -41 87 -169 0 -210 -44 -21 -75 -19 -115 8 -48 32 -67 89 -46
139 17 41 68 78 105 78 13 0 38 -7 56 -15z m3158 -24 c50 -55 49 -107 -1 -164
-26 -28 -36 -32 -80 -32 -44 0 -55 4 -83 33 -28 28 -33 39 -33 81 0 52 25 92
70 112 38 17 98 2 127 -30z m-2954 -537 c12 -8 29 -28 37 -44 42 -81 -13 -170
-106 -170 -108 0 -156 128 -77 202 24 22 40 28 77 28 26 0 56 -7 69 -16z
m3221 -10 c53 -44 54 -123 1 -175 -49 -49 -147 -35 -180 26 -19 35 -17 97 4
126 38 55 124 66 175 23z m-1210 -898 c88 -46 79 -185 -15 -216 -79 -26 -154
27 -154 110 0 52 13 76 53 100 38 24 78 25 116 6z m-548 -193 c31 -19 59 -68
59 -105 0 -37 -37 -88 -78 -105 -32 -13 -42 -14 -77 -2 -44 16 -85 67 -85 106
0 93 102 152 181 106z m-545 -89 c50 -33 60 -124 18 -173 -44 -53 -123 -54
-175 -1 -23 22 -29 38 -29 70 0 67 26 102 90 124 21 7 70 -4 96 -20z"/>
<path d="M2025 3201 c-86 -22 -168 -93 -209 -180 -21 -45 -21 -57 -21 -521 l0
-475 24 -52 c27 -61 93 -126 159 -156 46 -22 56 -22 522 -22 466 0 476 0 522
22 66 30 132 95 159 156 l24 52 0 475 0 475 -28 57 c-30 62 -83 115 -149 150
-43 23 -44 23 -508 25 -256 1 -478 -2 -495 -6z m955 -154 c30 -16 51 -37 67
-67 23 -43 23 -43 23 -480 0 -437 0 -437 -23 -480 -16 -30 -37 -51 -67 -67
-43 -23 -43 -23 -480 -23 -437 0 -437 0 -480 23 -30 16 -51 37 -67 67 -23 43
-23 43 -23 480 0 436 0 437 23 481 16 31 36 51 67 67 44 22 48 22 481 22 436
0 436 0 479 -23z"/>
</g>
</svg>
