<?xml version="1.0" standalone="no"?>
<!DOCTYPE svg PUBLIC "-//W3C//DTD SVG 20010904//EN"
 "http://www.w3.org/TR/2001/REC-SVG-20010904/DTD/svg10.dtd">
<svg version="1.0" xmlns="http://www.w3.org/2000/svg"
 width="500.000000pt" height="500.000000pt" viewBox="0 0 500.000000 500.000000"
 preserveAspectRatio="xMidYMid meet">

<g transform="translate(0.000000,500.000000) scale(0.100000,-0.100000)"
fill="#000000" stroke="none">
<path d="M2285 4385 c-653 -76 -1208 -471 -1495 -1066 -254 -528 -248 -1146
19 -1673 245 -484 698 -849 1219 -980 180 -46 308 -59 517 -53 229 6 361 28
554 93 998 337 1526 1404 1191 2406 -98 294 -247 527 -481 753 -165 160 -296
251 -493 346 -316 151 -688 214 -1031 174z m524 -126 c387 -67 766 -281 1028
-578 208 -237 352 -528 413 -837 28 -139 38 -419 20 -561 -46 -367 -201 -701
-464 -995 -246 -276 -629 -482 -1015 -547 -172 -29 -418 -29 -591 0 -444 75
-855 326 -1130 690 -433 575 -476 1364 -108 1978 185 309 468 566 786 713 174
81 422 145 617 162 97 8 330 -5 444 -25z"/>
<path d="M3114 3771 c-67 -29 -85 -121 -35 -172 16 -16 39 -29 50 -29 20 0 21
-4 21 -183 l0 -182 -112 -112 -113 -112 -49 45 -49 45 66 67 c69 69 79 88 51
99 -11 4 -38 -16 -84 -62 l-69 -68 -43 38 c-24 21 -44 41 -46 45 -1 3 47 55
108 115 105 105 131 145 92 145 -9 0 -68 -51 -131 -114 l-114 -114 -47 34
c-65 46 -99 52 -152 24 -23 -12 -56 -33 -72 -47 l-29 -24 -129 128 -128 128 5
45 c7 57 -9 90 -58 113 -31 16 -42 17 -72 7 -99 -33 -100 -167 -1 -200 22 -7
42 -7 58 -1 23 9 35 -1 154 -120 l128 -129 -34 -35 -34 -35 -112 111 c-79 78
-117 110 -128 106 -9 -4 -16 -12 -16 -19 0 -8 47 -60 105 -118 58 -58 105
-109 104 -115 0 -5 -16 -23 -35 -39 l-35 -29 -117 116 -117 117 -197 0 c-180
0 -198 2 -210 18 -37 53 -106 56 -154 8 -47 -47 -47 -95 0 -142 47 -47 95 -47
142 0 19 19 34 41 34 50 0 14 22 16 183 16 l182 0 108 -108 c59 -59 107 -112
107 -118 0 -5 -19 -29 -43 -52 l-43 -42 -64 65 c-64 64 -100 82 -100 48 0 -10
30 -48 67 -85 l66 -67 -38 -43 c-21 -24 -41 -44 -45 -46 -3 -1 -55 47 -115
108 -105 105 -145 131 -145 92 0 -9 51 -69 114 -131 l115 -114 -24 -32 c-60
-78 -62 -128 -10 -206 14 -21 25 -42 25 -46 0 -5 -58 -67 -130 -138 l-129
-129 -46 3 c-55 3 -91 -17 -110 -62 -17 -41 -9 -80 22 -111 33 -33 73 -41 117
-22 47 20 73 74 58 122 -9 31 -8 34 122 163 l132 132 33 -42 34 -41 -112 -112
c-61 -61 -111 -116 -111 -123 0 -6 7 -14 16 -17 12 -5 49 25 128 104 l112 110
37 -38 37 -38 -120 -119 -120 -120 0 -193 0 -193 -26 -22 c-19 -16 -27 -36
-31 -69 -5 -42 -2 -50 24 -77 40 -39 76 -48 119 -28 48 23 68 58 61 110 -6 46
-43 87 -78 87 -18 0 -19 8 -19 183 l0 182 113 112 112 112 49 -45 49 -45 -68
-69 c-46 -46 -66 -73 -62 -84 11 -28 31 -18 97 49 35 36 67 65 71 65 3 0 27
-17 53 -37 l47 -37 -115 -115 c-108 -108 -137 -151 -102 -151 8 0 68 52 134
115 l121 116 60 -31 c33 -16 70 -30 81 -30 12 0 46 16 76 35 30 19 60 35 67
35 7 0 68 -56 137 -125 l125 -125 0 -60 c0 -67 18 -94 70 -108 73 -21 130 23
130 100 0 42 -4 53 -28 74 -36 30 -72 40 -102 26 -31 -14 -46 -2 -185 148
-102 110 -103 111 -84 131 46 51 48 49 169 -71 79 -79 118 -111 129 -107 9 4
16 12 16 19 0 7 -50 63 -112 125 l-112 112 39 35 40 35 120 -120 120 -119 198
0 c169 0 198 -2 204 -15 8 -22 56 -45 94 -45 46 0 99 56 99 105 0 49 -53 105
-99 105 -48 0 -88 -25 -102 -65 l-13 -35 -180 0 -181 0 -112 112 -113 112 47
48 47 48 67 -66 c46 -45 72 -65 83 -61 28 11 18 31 -48 96 l-65 64 42 49 41
49 111 -111 c106 -105 145 -131 145 -93 0 10 -50 68 -111 129 l-111 111 38 58
c50 74 50 106 0 180 l-38 58 132 132 132 132 48 -5 c44 -4 52 -2 80 26 60 61
29 162 -55 178 -72 13 -139 -60 -118 -130 l10 -34 -132 -132 -132 -132 -33 42
-33 42 111 111 c62 62 112 117 112 124 0 6 -7 14 -16 17 -12 5 -49 -26 -131
-106 l-115 -113 -34 40 -35 39 121 121 120 120 0 197 c0 182 1 198 19 207 47
25 51 119 7 160 -26 25 -80 35 -112 22z m78 -58 c36 -32 13 -95 -35 -95 -36 0
-57 19 -57 50 0 53 54 80 92 45z m-1154 -139 c32 -22 27 -73 -9 -93 -24 -13
-29 -13 -53 2 -34 22 -36 69 -4 91 28 20 38 20 66 0z m-594 -340 c34 -34 9
-94 -39 -94 -46 0 -68 46 -45 91 13 23 62 26 84 3z m1157 -31 c195 -147 533
-498 587 -610 14 -30 14 -34 -11 -75 -86 -147 -562 -600 -656 -625 -13 -3 -37
1 -55 9 -66 32 -206 149 -347 288 -192 191 -299 334 -284 381 12 38 123 176
249 309 209 222 382 370 432 370 12 0 50 -21 85 -47z m915 -81 c43 -29 30 -94
-20 -100 -31 -4 -66 21 -66 47 0 43 53 76 86 53z m-1952 -1033 c31 -24 33 -52
6 -79 -34 -34 -80 -20 -95 27 -4 17 1 29 19 48 30 30 36 31 70 4z m2090 -125
c34 -34 9 -94 -39 -94 -30 0 -55 25 -55 55 0 30 25 55 55 55 13 0 31 -7 39
-16z m-600 -333 c25 -27 17 -72 -15 -90 -24 -13 -29 -13 -53 2 -17 12 -26 26
-26 44 0 55 59 83 94 44z m-1156 -137 c41 -28 18 -104 -31 -104 -53 0 -77 75
-35 104 12 9 27 16 33 16 6 0 21 -7 33 -16z"/>
<path d="M2452 2877 c-6 -6 -14 -25 -17 -40 -9 -35 -44 -45 -78 -22 -23 15
-28 15 -56 0 -17 -8 -37 -28 -45 -44 -13 -24 -13 -31 0 -56 21 -41 14 -67 -21
-78 -47 -15 -55 -26 -55 -77 0 -53 9 -64 58 -75 43 -9 49 -27 22 -70 -22 -35
-22 -35 -3 -68 28 -47 65 -57 114 -29 22 13 43 21 48 18 5 -3 11 -24 15 -45 7
-46 27 -61 80 -61 43 0 64 20 72 71 7 44 18 47 54 19 35 -27 72 -25 104 6 31
32 33 59 6 99 -29 43 -25 52 25 59 50 8 65 26 65 76 0 48 -15 67 -59 75 -47 8
-57 25 -30 58 26 34 24 73 -6 102 -27 28 -70 32 -98 11 -28 -22 -56 -8 -63 30
-3 19 -15 39 -25 44 -25 14 -95 12 -107 -3z m88 -69 c0 -29 5 -36 46 -55 l45
-23 29 22 c51 37 79 5 39 -46 -19 -24 -20 -29 -7 -69 14 -40 17 -42 56 -45 39
-3 42 -5 42 -33 0 -28 -2 -29 -44 -29 -42 0 -45 -2 -60 -41 -16 -40 -16 -41 9
-71 48 -57 13 -90 -44 -42 l-32 27 -39 -18 c-35 -16 -39 -22 -42 -59 -3 -36
-6 -41 -30 -44 -27 -3 -28 -1 -28 40 0 42 -1 44 -44 59 -42 15 -44 15 -71 -8
-50 -44 -89 -5 -44 43 l23 24 -22 45 c-18 38 -26 45 -51 45 -33 0 -54 20 -45
44 4 10 18 16 38 16 29 0 33 4 49 49 16 47 16 51 0 80 -15 24 -15 33 -5 43 10
10 19 10 43 -5 29 -16 33 -16 80 0 45 16 49 20 49 50 0 30 3 33 30 33 27 0 30
-3 30 -32z"/>
<path d="M2443 2661 c-71 -44 -63 -150 14 -186 29 -14 43 -15 73 -6 54 16 75
44 75 102 0 39 -5 54 -26 75 -35 35 -94 42 -136 15z m99 -48 c38 -35 9 -103
-44 -103 -24 0 -58 35 -58 60 0 26 34 60 62 60 12 0 30 -7 40 -17z"/>
</g>
</svg>
